<?xml version="1.0" standalone="no"?>
<!DOCTYPE svg PUBLIC "-//W3C//DTD SVG 20010904//EN"
 "http://www.w3.org/TR/2001/REC-SVG-20010904/DTD/svg10.dtd">
<svg version="1.0" xmlns="http://www.w3.org/2000/svg"
 width="600.000000pt" height="600.000000pt" viewBox="0 0 600.000000 600.000000"
 preserveAspectRatio="xMidYMid meet">
<metadata>
Created by potrace 1.11, written by Peter Selinger 2001-2013
</metadata>
<g transform="translate(0.000000,600.000000) scale(0.100000,-0.100000)"
fill="#000000" stroke="none">
<path d="M2820 5977 c-3 -2 -48 -7 -100 -11 -52 -3 -104 -8 -115 -10 -11 -2
-55 -9 -98 -16 -110 -16 -106 -15 -267 -59 -123 -33 -173 -48 -290 -89 -8 -3
-17 -6 -20 -7 -6 -2 -36 -15 -101 -43 -82 -36 -222 -105 -294 -145 -69 -40
-265 -165 -275 -176 -3 -3 -43 -35 -90 -70 -47 -36 -101 -78 -120 -95 -69 -61
-309 -306 -336 -343 -15 -21 -33 -42 -38 -48 -28 -26 -145 -191 -215 -304
-100 -158 -227 -428 -276 -581 -10 -30 -20 -59 -24 -65 -3 -5 -7 -14 -8 -20
-1 -5 -20 -78 -42 -162 -21 -83 -41 -169 -44 -190 -11 -74 -19 -128 -23 -153
-26 -154 -25 -635 1 -800 29 -179 40 -233 55 -290 7 -25 13 -52 15 -60 2 -8 8
-27 14 -42 6 -16 9 -28 6 -28 -5 0 4 -26 52 -165 20 -55 46 -124 59 -153 13
-29 24 -55 24 -58 0 -19 150 -297 225 -419 41 -65 187 -259 263 -348 55 -65
241 -245 327 -317 286 -240 617 -427 965 -543 106 -35 235 -71 299 -82 19 -3
37 -8 41 -10 6 -4 162 -32 221 -39 291 -38 785 -20 994 36 22 5 51 12 65 15
99 17 325 89 475 150 160 66 398 193 515 276 204 143 345 260 469 387 77 79
218 242 251 290 13 19 27 37 31 40 13 10 147 216 191 295 143 252 276 599 313
814 3 19 8 37 10 41 9 14 23 103 46 290 13 107 17 472 5 600 -10 117 -33 268
-58 370 -11 47 -22 93 -24 103 -2 10 -6 27 -9 37 -3 10 -7 27 -9 37 -6 30 -92
274 -115 328 -40 91 -162 333 -193 382 -104 163 -181 274 -233 333 -16 20 -48
57 -70 84 -45 55 -228 242 -292 297 -56 49 -206 166 -268 210 -377 264 -864
451 -1314 504 -30 4 -63 9 -75 12 -27 6 -490 15 -496 10z"/>
</g>
</svg>
